<?xml version="1.0" encoding="utf-8"?>
<!-- Generator: Adobe Illustrator 24.1.1, SVG Export Plug-In . SVG Version: 6.00 Build 0)  -->
<svg version="1.1" id="Layer_1" xmlns="http://www.w3.org/2000/svg" xmlns:xlink="http://www.w3.org/1999/xlink" x="0px" y="0px"
	 viewBox="0 0 2000 2000" style="enable-background:new 0 0 2000 2000;" xml:space="preserve">
<style type="text/css">
	.st0{fill:#D4A017;}
</style>

<g>
	<g>
		<path class="st0" d="M1646.57,727.21c-35.33-83.53-85.91-158.54-150.32-222.96c-64.42-64.42-139.43-114.99-222.96-150.32
			c-86.48-36.58-178.34-55.12-273.03-55.12c-94.69,0-186.55,18.55-273.04,55.12c-83.53,35.33-158.54,85.9-222.96,150.32
			S389.26,643.69,353.93,727.21c-36.58,86.48-55.12,178.34-55.12,273.04c0,94.69,18.55,186.55,55.12,273.03
			c35.33,83.53,85.9,158.54,150.32,222.96c64.42,64.42,139.43,114.99,222.96,150.32c86.48,36.58,178.34,55.13,273.04,55.13
			c94.69,0,186.55-18.55,273.03-55.13c83.53-35.33,158.54-85.91,222.96-150.32c64.42-64.42,114.99-139.43,150.32-222.96
			c36.58-86.48,55.13-178.34,55.13-273.03C1701.69,905.56,1683.15,813.69,1646.57,727.21z M1000.25,1692.38
			c-381.64,0-692.13-310.49-692.13-692.13c0-381.64,310.49-692.13,692.13-692.13c381.64,0,692.13,310.49,692.13,692.13
			C1692.38,1381.89,1381.89,1692.38,1000.25,1692.38z"/>
		<path class="st0" d="M1617.26,739.6c-33.73-79.74-82.01-151.35-143.5-212.85c-61.49-61.5-133.11-109.78-212.85-143.5
			c-82.56-34.92-170.26-52.63-260.65-52.63c-90.4,0-178.09,17.71-260.65,52.63c-79.74,33.73-151.35,82.01-212.85,143.5
			S416.97,659.86,383.24,739.6c-34.92,82.56-52.63,170.26-52.63,260.65c0,90.4,17.71,178.09,52.63,260.65
			c33.73,79.74,82.01,151.35,143.5,212.85c61.5,61.5,133.11,109.78,212.85,143.5c82.56,34.92,170.26,52.63,260.65,52.63
			c90.4,0,178.09-17.71,260.65-52.63c79.74-33.73,151.35-82.01,212.85-143.5c61.5-61.49,109.78-133.11,143.5-212.85
			c34.92-82.56,52.63-170.26,52.63-260.65C1669.88,909.85,1652.18,822.16,1617.26,739.6z M1000.25,1653.72
			c-360.33,0-653.47-293.15-653.47-653.47c0-360.33,293.15-653.47,653.47-653.47c360.33,0,653.47,293.15,653.47,653.47
			C1653.72,1360.58,1360.58,1653.72,1000.25,1653.72z"/>
		<polygon class="st0" points="537.59,814.83 518.91,809.05 502.87,860.87 482.82,854.66 496.76,809.66 478.08,803.87 
			464.14,848.87 444.78,842.88 460.61,791.74 441.93,785.95 419.68,857.82 515.13,887.38 		"/>
		<path class="st0" d="M486.83,756.61c4.15,5.31,9.33,9.73,15.54,13.26l0.25,0.14c6.21,3.53,12.67,5.72,19.41,6.59
			c6.73,0.87,13.23,0.46,19.5-1.23c6.27-1.69,12.12-4.61,17.53-8.76c5.42-4.15,9.94-9.4,13.56-15.77c2.4-4.22,4.21-8.23,5.43-12.02
			c1.23-3.79,1.96-7.5,2.22-11.13c0.26-3.63,0.12-7.18-0.43-10.67c-0.54-3.48-1.37-7.02-2.51-10.62l-19.2,5.18
			c1.22,5.18,1.76,10,1.63,14.47c-0.13,4.47-1.61,9.19-4.43,14.15c-2.11,3.72-4.78,6.73-7.99,9.01c-3.21,2.28-6.68,3.81-10.41,4.59
			c-3.73,0.78-7.6,0.85-11.62,0.22c-4.01-0.64-7.88-2.02-11.61-4.13l-0.25-0.14c-3.72-2.12-6.87-4.72-9.43-7.82
			c-2.56-3.1-4.45-6.47-5.67-10.11c-1.21-3.64-1.64-7.42-1.29-11.32c0.36-3.9,1.57-7.67,3.64-11.31c2.49-4.38,5.6-7.84,9.34-10.37
			c3.74-2.53,8.1-4.62,13.09-6.27l-7.12-20.13c-3.11,0.86-6.16,1.98-9.13,3.35c-2.97,1.38-5.81,3.1-8.52,5.17
			c-2.71,2.07-5.35,4.6-7.91,7.57c-2.57,2.98-5,6.49-7.3,10.54c-3.81,6.7-6.11,13.5-6.9,20.38c-0.79,6.88-0.27,13.48,1.57,19.77
			C479.68,745.49,482.68,751.3,486.83,756.61z"/>
		<polygon class="st0" points="620.66,679.33 591.11,652.2 618.53,622.34 648.08,649.47 662.95,633.28 589.35,565.69 574.48,581.88 
			603.6,608.63 576.18,638.49 547.06,611.74 532.19,627.93 605.79,695.52 		"/>
		<path class="st0" d="M653.43,574.41l0.16,0.24c3.96,5.94,8.75,10.78,14.38,14.52c5.63,3.74,11.69,6.22,18.17,7.45
			c6.48,1.23,13.16,1.18,20.05-0.15c6.89-1.33,13.54-4.13,19.96-8.4c6.42-4.27,11.58-9.34,15.51-15.22
			c3.92-5.87,6.54-12.07,7.85-18.6c1.31-6.53,1.34-13.13,0.11-19.8c-1.24-6.66-3.83-12.97-7.79-18.91l-0.16-0.24
			c-3.96-5.94-8.75-10.78-14.39-14.52c-5.63-3.74-11.69-6.22-18.17-7.45c-6.48-1.23-13.16-1.18-20.05,0.15
			c-6.89,1.33-13.54,4.13-19.96,8.4c-6.42,4.27-11.59,9.35-15.51,15.22c-3.92,5.87-6.54,12.07-7.85,18.61
			c-1.31,6.53-1.35,13.13-0.11,19.79C646.88,562.17,649.48,568.47,653.43,574.41z M667.17,538.5c0.59-3.83,1.97-7.43,4.12-10.81
			c2.15-3.38,5.09-6.31,8.81-8.79c3.64-2.43,7.47-3.97,11.48-4.65c4.01-0.67,7.94-0.57,11.78,0.3c3.84,0.87,7.43,2.49,10.77,4.83
			c3.34,2.35,6.19,5.31,8.57,8.87l0.16,0.24c2.37,3.56,3.99,7.32,4.85,11.27c0.86,3.95,0.99,7.83,0.39,11.66
			c-0.6,3.83-1.99,7.44-4.18,10.85c-2.19,3.41-5.11,6.32-8.75,8.75c-3.72,2.48-7.57,4.04-11.54,4.69
			c-3.97,0.65-7.88,0.53-11.72-0.34c-3.84-0.87-7.43-2.48-10.77-4.84c-3.34-2.35-6.19-5.31-8.57-8.87l-0.16-0.24
			c-2.37-3.56-3.99-7.32-4.85-11.27C666.7,546.22,666.57,542.33,667.17,538.5z"/>
		<path class="st0" d="M865.24,521.96l-7.32-29.07l16.2-4.08c5.44-1.37,10.36-3.37,14.76-6c4.39-2.63,8-5.82,10.84-9.57
			c2.83-3.75,4.73-8.01,5.69-12.77c0.96-4.75,0.73-9.95-0.68-15.58l-0.07-0.28c-1.25-4.98-3.25-9.31-5.99-12.99
			c-2.74-3.68-6.07-6.59-10-8.74c-3.93-2.15-8.38-3.46-13.35-3.93c-4.98-0.46-10.37,0.03-16.18,1.5l-39.59,9.97l24.4,96.9
			L865.24,521.96z M862.16,440.16c5.35-1.35,9.89-1.16,13.61,0.55c3.72,1.71,6.18,4.97,7.39,9.77l0.07,0.28
			c1.05,4.15,0.45,8.01-1.8,11.57c-2.25,3.56-6.04,6.01-11.4,7.36l-16.89,4.25l-7.46-29.62L862.16,440.16z"/>
		<polygon class="st0" points="1015.9,502.29 1014.96,482.47 965.2,484.83 961.4,404.84 939.44,405.88 944.18,505.7 		"/>
		<path class="st0" d="M1065.57,484.8l41.67,6.99l5.31,23.61l22.67,3.8l-25.6-106.33l-19.99-3.35l-58.87,92.17l22.1,3.7
			L1065.57,484.8z M1094.97,437.19l7.74,34.15l-26.19-4.39L1094.97,437.19z"/>
		<polygon class="st0" points="1201.62,545.98 1216.97,509.23 1275.56,468.57 1252.51,458.95 1214.66,486.61 1208.12,440.4 
			1184.41,430.5 1196.52,501.15 1181.33,537.51 		"/>
		<polygon class="st0" points="1367.11,634.56 1329.36,602.05 1381.62,541.37 1364.96,527.02 1299.76,602.75 1354.17,649.6 		"/>
		
			<rect x="1366.85" y="635.33" transform="matrix(0.7617 -0.6479 0.6479 0.7617 -81.162 1071.9431)" class="st0" width="99.93" height="21.98"/>
		<polygon class="st0" points="1432.88,757.41 1540.1,741.16 1528.08,720.74 1454.18,733.93 1501.57,675.72 1489.26,654.81 
			1423.03,740.68 		"/>
		<polygon class="st0" points="1485.06,884.72 1503.66,878.67 1486.9,827.08 1506.86,820.6 1521.41,865.4 1540.01,859.36 
			1525.45,814.56 1544.73,808.29 1561.28,859.2 1579.88,853.16 1556.63,781.61 1461.59,812.49 		"/>
		<polygon class="st0" points="499.4,1235.41 511.19,1230.41 499.16,1202.01 511.38,1196.84 525.05,1229.11 536.84,1224.12 
			517.63,1178.76 457.39,1204.28 476.78,1250.06 488.57,1245.07 474.72,1212.37 487.37,1207.01 		"/>
		<path class="st0" d="M570.81,1296.7c0.48-4.27,0.26-8.49-0.67-12.66c-0.92-4.17-2.66-8.28-5.21-12.34
			c-1.79-2.85-3.82-5.21-6.1-7.08c-2.28-1.87-4.69-3.19-7.24-3.97c-2.55-0.78-5.13-1-7.76-0.67c-2.62,0.33-5.2,1.29-7.74,2.88
			l-0.16,0.1c-2.74,1.72-4.77,3.6-6.06,5.63c-1.3,2.03-2.07,4.23-2.31,6.6c-0.24,2.37-0.07,4.95,0.51,7.76
			c0.58,2.81,1.41,5.83,2.49,9.06c0.88,2.69,1.51,4.93,1.9,6.72c0.39,1.79,0.57,3.26,0.56,4.41c-0.01,1.15-0.23,2.06-0.66,2.74
			c-0.42,0.67-1.03,1.26-1.82,1.75l-0.16,0.1c-1.64,1.03-3.36,1.13-5.16,0.31c-1.8-0.82-3.5-2.49-5.09-5.03
			c-1.99-3.17-3.21-6.46-3.67-9.89c-0.46-3.43-0.46-7.05,0.01-10.88l-13.15-1.79c-0.92,5.21-0.83,10.31,0.27,15.28
			c1.1,4.97,2.97,9.57,5.63,13.79c1.89,3.01,3.99,5.51,6.31,7.5c2.32,1.99,4.76,3.42,7.33,4.29c2.57,0.87,5.24,1.13,8,0.79
			c2.76-0.35,5.52-1.38,8.26-3.1l0.16-0.1c2.43-1.52,4.27-3.22,5.53-5.08c1.26-1.86,2.06-3.95,2.41-6.27
			c0.35-2.32,0.29-4.87-0.16-7.64c-0.46-2.78-1.2-5.8-2.22-9.07c-0.86-2.78-1.55-5.1-2.05-6.96c-0.5-1.86-0.78-3.4-0.81-4.64
			c-0.04-1.23,0.17-2.23,0.61-2.98c0.44-0.76,1.11-1.42,2.01-1.98l0.16-0.1c1.37-0.86,2.89-0.99,4.56-0.38
			c1.67,0.61,3.25,2.1,4.74,4.47c1.49,2.37,2.49,5.06,3.01,8.04c0.51,2.99,0.71,6.25,0.58,9.79L570.81,1296.7z"/>
		<polygon class="st0" points="630.98,1358.66 595.32,1317.83 585.33,1326.56 598.42,1341.56 559.14,1375.87 568.61,1386.71 
			607.89,1352.4 620.99,1367.4 		"/>
		<path class="st0" d="M608.05,1428.05l11.38,9.26l13.9-7.61l21.46,17.46l-4.62,15.16l11.67,9.5l19.84-68.81l-10.3-8.38
			L608.05,1428.05z M658.83,1434.06l-13.49-10.97l20.13-10.97L658.83,1434.06z"/>
		<path class="st0" d="M755.43,1452.24l-26.53-14.69l-31.7,57.23l27.18,15.05c3.21,1.78,6.32,3.07,9.32,3.88
			c3,0.81,5.8,1.08,8.4,0.81c2.6-0.27,4.95-1.1,7.04-2.51c2.09-1.4,3.86-3.42,5.32-6.03l0.09-0.16c2.11-3.81,2.82-7.33,2.11-10.53
			c-0.71-3.21-2.37-6.35-4.98-9.44c1.33,0.02,2.65-0.1,3.97-0.37c1.32-0.27,2.59-0.72,3.83-1.35c1.24-0.63,2.4-1.46,3.5-2.49
			c1.1-1.03,2.1-2.36,3.01-4l0.09-0.16c2.14-3.87,2.63-7.84,1.47-11.9C766.06,1460.34,762.01,1455.89,755.43,1452.24z
			 M742.99,1497.39l-0.09,0.16c-1.18,2.13-2.84,3.26-4.98,3.39c-2.14,0.13-4.6-0.57-7.38-2.11l-14.96-8.29l6.97-12.59l14.55,8.06
			c3.27,1.81,5.33,3.68,6.18,5.62C744.15,1493.56,744.05,1495.48,742.99,1497.39z M752.48,1472.73l-0.09,0.16
			c-1.18,2.13-2.85,3.21-5.01,3.26c-2.16,0.05-4.64-0.7-7.42-2.24l-11.61-6.43l6.7-12.1l12.43,6.88c2.67,1.48,4.43,3.12,5.29,4.91
			C753.64,1468.97,753.54,1470.82,752.48,1472.73z"/>
		<polygon class="st0" points="821.26,1482.17 807.7,1477.34 785.75,1538.97 830.04,1554.75 834.4,1542.51 803.67,1531.56 		"/>
		
			<rect x="851.93" y="1527.38" transform="matrix(0.2104 -0.9776 0.9776 0.2104 -801.6883 2076.6189)" class="st0" width="65.43" height="14.39"/>
		<path class="st0" d="M947.16,1529.06c0.13-1.61,0.94-2.91,2.43-3.88c1.49-0.97,3.63-1.35,6.42-1.12c2.79,0.23,5.54,1.03,8.24,2.41
			c2.7,1.38,5.43,3.18,8.19,5.4l8.33-10.2c-3.14-2.94-6.65-5.29-10.54-7.05c-3.89-1.75-8.23-2.83-13.01-3.22
			c-3.35-0.27-6.46-0.06-9.32,0.65c-2.86,0.7-5.36,1.85-7.51,3.42c-2.15,1.57-3.87,3.51-5.18,5.81c-1.3,2.3-2.08,4.94-2.32,7.92
			l-0.01,0.19c-0.26,3.23,0.03,5.97,0.88,8.23c0.85,2.26,2.15,4.19,3.9,5.8c1.75,1.61,3.92,3.02,6.52,4.23
			c2.6,1.21,5.51,2.36,8.75,3.43c2.69,0.91,4.86,1.74,6.52,2.5c1.66,0.76,2.95,1.49,3.87,2.19c0.91,0.7,1.51,1.42,1.8,2.16
			c0.28,0.74,0.39,1.58,0.31,2.51l-0.01,0.19c-0.16,1.92-1.1,3.36-2.84,4.32c-1.73,0.95-4.09,1.31-7.07,1.07
			c-3.73-0.3-7.1-1.3-10.12-2.98c-3.02-1.68-5.92-3.86-8.71-6.52l-9.3,9.47c3.62,3.86,7.76,6.84,12.4,8.93
			c4.64,2.1,9.45,3.35,14.42,3.75c3.54,0.29,6.8,0.1,9.78-0.56c2.98-0.66,5.59-1.76,7.83-3.3c2.24-1.54,4.04-3.52,5.42-5.94
			c1.38-2.42,2.2-5.24,2.46-8.47l0.02-0.19c0.23-2.86-0.02-5.35-0.76-7.47c-0.74-2.12-1.93-4.02-3.58-5.68
			c-1.65-1.67-3.73-3.15-6.22-4.44c-2.5-1.3-5.36-2.51-8.59-3.65c-2.74-0.97-5.01-1.81-6.8-2.52c-1.79-0.71-3.19-1.42-4.2-2.12
			c-1.01-0.71-1.68-1.46-2.03-2.27c-0.34-0.81-0.47-1.74-0.38-2.8L947.16,1529.06z"/>
		<polygon class="st0" points="1057.55,1511.19 1059.74,1536.99 1033.29,1539.23 1031.1,1513.43 1016.76,1514.65 1022.29,1579.84 
			1036.63,1578.63 1034.41,1552.45 1060.86,1550.21 1063.08,1576.38 1077.42,1575.17 1071.9,1509.97 		"/>
		<polygon class="st0" points="1134.74,1550.79 1131.26,1537.5 1161.11,1529.7 1157.87,1517.31 1128.03,1525.11 1124.67,1512.27 
			1158.58,1503.41 1155.34,1491.02 1107.69,1503.47 1124.23,1566.78 1172.34,1554.2 1169.1,1541.81 		"/>
		<path class="st0" d="M1255.85,1484.54l-0.08-0.17c-1.92-4.19-4.46-7.74-7.64-10.64c-3.18-2.9-6.77-5.04-10.8-6.42
			c-4.02-1.38-8.32-1.94-12.89-1.66c-4.57,0.27-9.18,1.47-13.82,3.59l-23.21,10.61l27.2,59.51l23.21-10.61
			c4.65-2.12,8.56-4.84,11.74-8.14c3.18-3.31,5.57-6.93,7.16-10.88c1.59-3.95,2.32-8.08,2.19-12.41
			C1258.79,1493,1257.77,1488.74,1255.85,1484.54z M1243.14,1506.08c-0.83,2.3-2.16,4.38-3.98,6.24c-1.82,1.86-4.07,3.4-6.73,4.62
			l-10.12,4.62l-16.4-35.87l10.12-4.62c2.66-1.22,5.3-1.89,7.91-2.02c2.61-0.13,5.06,0.24,7.34,1.11c2.28,0.87,4.37,2.22,6.26,4.02
			c1.89,1.81,3.43,4.02,4.62,6.62l0.08,0.17c1.22,2.66,1.88,5.27,1.99,7.83C1244.33,1501.35,1243.97,1503.78,1243.14,1506.08z"/>
		<path class="st0" d="M1359.74,1438.6l2.91-13.14c0.76-3.56,1.37-6.76,1.83-9.62c0.46-2.85,0.61-5.46,0.47-7.82
			c-0.14-2.36-0.63-4.59-1.45-6.7c-0.83-2.11-2.12-4.22-3.87-6.32l-0.12-0.14c-1.96-2.34-4.15-4.12-6.58-5.34
			c-2.43-1.21-4.96-1.86-7.59-1.95c-2.63-0.08-5.31,0.39-8.06,1.43c-2.75,1.04-5.41,2.63-8,4.79c-2.25,1.88-4.07,3.78-5.46,5.72
			c-1.39,1.94-2.44,3.96-3.16,6.07c-0.72,2.11-1.17,4.34-1.35,6.7c-0.18,2.36-0.19,4.9-0.03,7.62l12.96-0.22
			c-0.05-3.85,0.22-6.96,0.81-9.32c0.59-2.36,1.86-4.35,3.83-5.99c2.01-1.68,4.09-2.48,6.26-2.42c2.16,0.06,4.14,1.17,5.93,3.31
			c0.88,1.05,1.53,2.15,1.95,3.29c0.42,1.14,0.68,2.47,0.76,3.98c0.08,1.51,0,3.24-0.24,5.18c-0.24,1.95-0.62,4.22-1.12,6.83
			l-5.31,27.64l7.29,8.74l37.18-31.02l-7.96-9.55L1359.74,1438.6z"/>
		<path class="st0" d="M1441.68,1345.76c-2.19-3.75-5.08-7.17-8.66-10.27l-0.14-0.12c-3.58-3.1-7.39-5.46-11.41-7.09
			s-8.01-2.48-11.95-2.54c-3.94-0.07-7.72,0.69-11.36,2.28c-3.64,1.59-6.87,4.01-9.68,7.26c-2.85,3.3-4.79,6.88-5.81,10.73
			c-1.02,3.85-1.22,7.74-0.58,11.67c0.64,3.93,2.06,7.77,4.25,11.52c2.19,3.75,5.08,7.18,8.67,10.27l0.14,0.12
			c3.58,3.1,7.38,5.47,11.38,7.13c4.01,1.65,7.98,2.51,11.92,2.58c3.94,0.07,7.72-0.69,11.37-2.28c3.64-1.59,6.89-4.03,9.74-7.33
			c2.85-3.3,4.79-6.88,5.81-10.73c1.02-3.85,1.22-7.74,0.58-11.67C1445.29,1353.35,1443.87,1349.51,1441.68,1345.76z
			 M1432.51,1365.58c-0.36,1.99-1.26,3.81-2.68,5.46c-1.43,1.65-3.12,2.8-5.08,3.45c-1.96,0.65-4.05,0.85-6.25,0.59
			c-2.21-0.26-4.5-0.96-6.88-2.12c-2.38-1.15-4.7-2.71-6.96-4.66l-0.14-0.12c-2.26-1.96-4.12-4.02-5.58-6.19
			c-1.46-2.17-2.49-4.31-3.09-6.44c-0.6-2.12-0.71-4.18-0.35-6.17c0.36-1.99,1.26-3.81,2.68-5.46c1.38-1.6,3.06-2.73,5.02-3.38
			c1.96-0.65,4.07-0.85,6.32-0.59c2.25,0.26,4.55,0.95,6.91,2.08c2.36,1.13,4.67,2.68,6.93,4.63l0.14,0.12
			c2.26,1.96,4.13,4.01,5.62,6.15c1.48,2.15,2.51,4.29,3.08,6.44C1432.77,1361.52,1432.88,1363.59,1432.51,1365.58z"/>
		<path class="st0" d="M1481.59,1299.92l-1.45-13.38c-0.42-3.61-0.86-6.85-1.35-9.7c-0.48-2.85-1.17-5.37-2.06-7.56
			c-0.89-2.19-2.06-4.15-3.52-5.88c-1.46-1.73-3.36-3.32-5.69-4.75l-0.16-0.1c-2.6-1.59-5.25-2.58-7.95-2.95
			c-2.69-0.37-5.3-0.18-7.81,0.59c-2.51,0.76-4.91,2.08-7.18,3.93c-2.27,1.86-4.29,4.22-6.04,7.09c-1.53,2.5-2.64,4.89-3.34,7.16
			c-0.7,2.28-1.05,4.53-1.05,6.76c0,2.23,0.29,4.49,0.87,6.78c0.58,2.29,1.39,4.7,2.41,7.23l12.21-4.36
			c-1.28-3.63-2.02-6.66-2.22-9.09c-0.2-2.42,0.37-4.72,1.71-6.9c1.37-2.23,3.08-3.66,5.15-4.3c2.07-0.63,4.29-0.22,6.68,1.24
			c1.17,0.71,2.13,1.54,2.9,2.49c0.77,0.95,1.44,2.12,2,3.53c0.56,1.41,1.04,3.07,1.43,4.99c0.39,1.92,0.77,4.2,1.12,6.83
			l3.82,27.88l9.71,5.94l25.29-41.29l-10.6-6.49L1481.59,1299.92z"/>
		<path class="st0" d="M1532.86,1198.07c-1.96-2.01-4.38-3.61-7.26-4.81l-0.17-0.07c-2.82-1.17-5.41-1.71-7.78-1.61
			c-2.37,0.1-4.54,0.64-6.5,1.63c-1.96,0.98-3.72,2.29-5.27,3.92c-1.55,1.63-2.94,3.41-4.14,5.33l-8.19-21.42l-10.01-4.17
			l-17.02,40.89l11.48,4.78l9.88-23.73l8.43,20.42l9.28,1.43l2.3-5.52c1.56-3.74,3.43-6.37,5.6-7.89c2.18-1.52,4.5-1.77,6.96-0.75
			l0.17,0.07c2.23,0.93,3.68,2.46,4.34,4.59c0.66,2.13,0.46,4.46-0.59,6.99c-1.29,3.11-3.03,5.54-5.21,7.3
			c-2.18,1.76-4.88,3.18-8.11,4.27l4.92,12.78c4.21-1.29,8.08-3.44,11.61-6.45c3.53-3.02,6.44-7.26,8.71-12.72
			c1.39-3.34,2.16-6.56,2.31-9.69c0.15-3.12-0.27-5.99-1.27-8.62C1536.31,1202.4,1534.83,1200.08,1532.86,1198.07z"/>
		<path class="st0" d="M1544.31,1026.04c-9.77,0-17.73,7.95-17.73,17.73s7.95,17.73,17.73,17.73s17.73-7.95,17.73-17.73
			S1554.08,1026.04,1544.31,1026.04z"/>
		<path class="st0" d="M473.92,1043.77c0-9.77-7.95-17.73-17.73-17.73s-17.73,7.95-17.73,17.73s7.95,17.73,17.73,17.73
			S473.92,1053.54,473.92,1043.77z"/>
		<path class="st0" d="M1301.11,983.49c15.1,19.85,26.12,42.69,32.26,66.73c0.81,3,1.42,6.04,2.09,9.07
			c0.55,3.05,1.18,6.09,1.58,9.17c0.49,3.06,0.83,6.14,1.18,9.22c0.16,1.54,0.26,3.09,0.39,4.63l0.19,2.32l0.11,2.32
			c0.65,12.38,0.01,24.81-1.81,37.05c-3.61,24.48-12.15,48.24-25.14,69.29c-12.88,21.12-30.08,39.58-50.18,54.02
			c-10.03,7.24-20.8,13.48-32.09,18.57c-11.3,5.08-23.1,9.05-35.2,11.81c-12.1,2.77-24.49,4.25-36.92,4.57l-2.33,0.09l-2.33-0.01
			l-4.67-0.03l-4.66-0.19c-1.56-0.06-3.11-0.13-4.66-0.28l-4.66-0.38c-1.55-0.16-3.09-0.36-4.64-0.54c-3.1-0.31-6.16-0.91-9.25-1.36
			c-24.58-4.27-48.3-13.58-69.52-27.07c20.49,14.59,44.17,24.8,68.97,29.94c24.83,5.01,50.73,5.01,75.65-0.2
			c24.94-5.13,48.74-15.65,69.58-30.34c20.82-14.74,38.6-33.75,51.98-55.5c13.31-21.79,22.1-46.33,25.63-71.59
			c3.47-25.26,1.97-51.22-4.82-75.76c-0.79-3.08-1.8-6.1-2.73-9.14c-1.05-3-2.05-6.02-3.24-8.97c-1.1-2.98-2.4-5.88-3.65-8.8
			c-1.34-2.88-2.67-5.77-4.15-8.57c-2.9-5.65-6.06-11.16-9.54-16.46c-3.47-5.31-7.13-10.49-11.14-15.39
			c-15.91-19.7-35.79-36.13-58.12-47.71C1266.96,946.72,1286.07,963.59,1301.11,983.49z"/>
		<path class="st0" d="M1129.71,1219.34c8.28,1.91,16.78,2.88,25.3,3.09c8.52,0.16,17.08-0.6,25.48-2.21
			c16.82-3.18,32.91-10.12,47.02-19.89c14.08-9.83,26.1-22.6,35.11-37.24c8.93-14.69,14.79-31.24,17.03-48.27
			c0.23-2.13,0.56-4.26,0.66-6.4c0.13-2.14,0.35-4.28,0.34-6.42c0.18-4.29-0.12-8.57-0.29-12.85c-0.75-8.53-2.14-17.02-4.59-25.23
			c-0.25-1.04-0.61-2.05-0.95-3.06l-1.04-3.03l-1.04-3.03c-0.39-1-0.82-1.97-1.23-2.96l-1.24-2.95c-0.43-0.98-0.78-1.99-1.29-2.93
			l-2.9-5.7c-0.46-0.96-1.02-1.87-1.57-2.78l-1.64-2.74l-1.64-2.74l-1.82-2.63l-1.82-2.62c-0.61-0.87-1.19-1.76-1.88-2.57
			l-3.98-4.98c-5.58-6.41-11.67-12.34-18.34-17.54c-1.69-1.27-3.43-2.47-5.14-3.7c-1.68-1.27-3.5-2.35-5.3-3.45
			c-3.54-2.3-7.34-4.12-11.05-6.07c3.57,2.22,7.22,4.29,10.56,6.82c1.71,1.21,3.45,2.37,5.04,3.73c1.62,1.32,3.26,2.6,4.86,3.95
			c6.27,5.51,12,11.57,17.12,18.1c5.1,6.55,9.44,13.64,13.16,21.01l2.61,5.62c0.47,0.92,0.78,1.91,1.17,2.86l1.12,2.88
			c0.37,0.96,0.76,1.92,1.11,2.89l0.92,2.95l0.92,2.95c0.31,0.98,0.63,1.96,0.84,2.97c8.48,31.85,3.5,66.92-13.77,94.83
			c-17,28.05-45.77,48.67-77.99,55.68c-16.09,3.54-32.94,3.81-49.25,0.8c-16.34-2.94-32.06-9.39-46.15-18.51
			C1097.49,1208.18,1113.15,1215.52,1129.71,1219.34z"/>
		<path class="st0" d="M1276.18,1003.39c12.39,16.46,21.4,35.36,26.41,55.22c4.95,19.87,6.02,40.69,2.94,60.88
			c-3.01,20.19-10.05,39.78-20.77,57.14c-10.61,17.43-24.78,32.67-41.34,44.6c-8.26,5.99-17.13,11.16-26.44,15.39
			c-9.31,4.21-19.04,7.52-29.01,9.84c-9.98,2.32-20.2,3.58-30.46,3.9c-10.27,0.41-20.57-0.41-30.73-2.07
			c-20.33-3.4-39.99-10.96-57.65-21.96c16.93,12.11,36.55,20.57,57.11,24.83c20.58,4.17,42.06,4.15,62.73-0.17
			c20.69-4.25,40.44-13,57.73-25.18c17.28-12.24,32.03-28.03,43.13-46.08c11.04-18.1,18.33-38.46,21.26-59.44
			c2.87-20.97,1.62-42.51-4.03-62.86c-0.66-2.55-1.49-5.06-2.27-7.58c-0.88-2.49-1.7-4.99-2.69-7.44c-0.92-2.47-1.99-4.88-3.03-7.3
			c-1.11-2.39-2.22-4.78-3.45-7.11c-2.41-4.68-5.03-9.25-7.92-13.64c-2.88-4.4-5.92-8.69-9.24-12.75
			c-13.2-16.32-29.68-29.92-48.18-39.46C1248.14,972.83,1263.84,986.87,1276.18,1003.39z"/>
		<path class="st0" d="M1111.79,1178.59c5.74,3.32,11.87,5.99,18.23,8.02c12.76,3.9,26.45,5.08,39.79,3.14
			c13.36-1.84,26.26-6.86,37.59-14.25c11.28-7.49,20.87-17.49,28-29.03c7.01-11.6,11.5-24.74,12.93-38.2
			c0.11-0.84,0.18-1.68,0.22-2.53l0.17-2.53c0.11-1.69,0.08-3.38,0.12-5.07c0-1.69-0.14-3.38-0.21-5.06l-0.12-2.53
			c-0.06-0.84-0.2-1.68-0.29-2.52l-0.64-5.02l-1.02-4.96c-0.3-1.66-0.81-3.27-1.28-4.89l-0.71-2.43l-0.35-1.21l-0.44-1.18
			l-1.78-4.73c-0.62-1.56-1.39-3.06-2.07-4.6l-1.06-2.28l-1.22-2.2l-1.23-2.2c-0.42-0.72-0.8-1.48-1.29-2.16l-2.79-4.18
			c-0.44-0.71-0.96-1.37-1.48-2.03l-1.54-1.98l-1.54-1.98c-0.53-0.64-1.11-1.25-1.66-1.88c-1.13-1.23-2.2-2.51-3.38-3.69l-3.63-3.44
			l-0.91-0.86l-0.97-0.79l-1.93-1.58l-1.93-1.58c-0.64-0.53-1.35-0.97-2.02-1.46c-1.36-0.95-2.71-1.92-4.09-2.83
			c-5.61-3.55-11.59-6.41-17.75-8.7c2.92,1.52,5.91,2.87,8.66,4.66l2.1,1.25c0.35,0.21,0.71,0.41,1.05,0.63l1,0.7l4.01,2.8
			c5.16,3.97,10.01,8.31,14.28,13.17c4.21,4.9,8.04,10.12,11.18,15.73c0.82,1.38,1.46,2.86,2.22,4.28l1.1,2.14l0.93,2.22
			c0.6,1.49,1.29,2.94,1.82,4.45l1.53,4.55l0.38,1.14l0.29,1.16l0.59,2.32c0.39,1.55,0.82,3.09,1.05,4.67l0.85,4.71l0.5,4.76
			c0.07,0.79,0.19,1.58,0.23,2.38l0.06,2.39c0.03,1.59,0.13,3.19,0.1,4.78c-0.08,1.59-0.07,3.19-0.21,4.77l-0.21,2.38
			c-0.06,0.79-0.14,1.59-0.26,2.37c-1.54,12.63-5.76,24.92-12.43,35.74c-6.61,10.85-15.56,20.27-26.07,27.45
			c-5.25,3.6-10.89,6.63-16.8,9.03c-5.91,2.38-12.07,4.18-18.37,5.31c-6.3,1.14-12.74,1.53-19.16,1.31
			c-6.42-0.22-12.84-1.11-19.11-2.68c-6.27-1.56-12.38-3.83-18.24-6.66c-2.9-1.47-5.79-3-8.54-4.77c-2.8-1.69-5.46-3.62-8.08-5.6
			c2.43,2.21,4.91,4.39,7.57,6.34C1106.15,1175.1,1108.95,1176.87,1111.79,1178.59z"/>
		<path class="st0" d="M852.43,1274.7c-6.22,0.12-12.45-0.06-18.64-0.5c-12.39-0.93-24.69-3.03-36.63-6.39
			c-11.94-3.36-23.52-7.92-34.55-13.54c-11.02-5.64-21.46-12.4-31.13-20.12c-19.36-15.39-35.63-34.66-47.45-56.37
			c-23.94-43.33-29.13-96.46-14.4-143.86c7.31-23.7,19.41-45.97,35.44-65.06c15.97-19.15,35.85-35.08,58.11-46.73
			c-22.85,10.49-43.48,25.93-60.31,44.84c-4.18,4.75-8.2,9.66-11.86,14.83c-3.69,5.15-7.18,10.45-10.32,15.97l-1.2,2.06l-1.13,2.09
			c-0.74,1.4-1.52,2.79-2.23,4.21c-1.39,2.85-2.82,5.69-4.07,8.61c-1.34,2.88-2.47,5.85-3.67,8.79c-1.07,2.99-2.24,5.95-3.17,8.99
			c-7.99,24.16-10.77,50.01-8.49,75.39c2.29,25.39,9.86,50.32,22.07,72.72c12.29,22.37,29.12,42.21,49.18,57.94
			c20.08,15.68,43.32,27.36,67.95,33.73c24.61,6.44,50.48,7.73,75.5,3.93c25.02-3.86,49.18-12.87,70.34-26.44
			c-21.83,12.43-45.99,20.54-70.74,23.55C864.86,1274.05,858.65,1274.53,852.43,1274.7z"/>
		<path class="st0" d="M815.16,1206.62c-31.81-8.6-59.52-30.57-75.13-59.39c-7.91-14.34-12.74-30.34-14.27-46.65
			c-0.39-4.08-0.6-8.18-0.55-12.28l0.17-6.15c0.02-0.51,0.01-1.03,0.06-1.54l0.16-1.53l0.31-3.06c0.28-4.11,1.19-8.12,1.85-12.17
			c0.42-2.01,0.97-3.99,1.45-5.99l0.74-2.99l0.96-2.93c4.91-15.71,13.15-30.39,23.89-43.01l4.14-4.65c0.67-0.8,1.46-1.48,2.18-2.22
			l2.23-2.18l2.23-2.18l2.38-2.02l2.38-2.02l1.19-1.02l0.59-0.51l0.63-0.47l5.02-3.73l1.26-0.93l1.32-0.84l2.64-1.69l2.63-1.71
			c0.43-0.3,0.88-0.56,1.35-0.8l1.37-0.76l5.51-3.04c-7.68,3.36-15.14,7.35-22.08,12.19l-0.66,0.43l-0.63,0.48l-1.26,0.96
			l-2.52,1.93l-2.52,1.94l-2.38,2.1l-2.38,2.11c-0.78,0.72-1.62,1.37-2.34,2.15l-4.46,4.54c-0.37,0.38-0.75,0.75-1.11,1.14
			l-1.03,1.22l-2.06,2.43l-2.06,2.44c-0.7,0.8-1.27,1.7-1.92,2.54c-1.25,1.72-2.52,3.42-3.76,5.16l-3.4,5.41
			c-1.19,1.77-2.14,3.68-3.14,5.56l-1.49,2.83c-0.24,0.47-0.51,0.94-0.74,1.42l-0.64,1.46l-2.58,5.86c-0.81,1.97-1.46,4.01-2.2,6.02
			l-1.08,3.02l-0.86,3.09c-0.56,2.06-1.18,4.11-1.68,6.19c-0.8,4.2-1.78,8.38-2.16,12.65l-0.38,3.19l-0.19,1.6
			c-0.06,0.53-0.06,1.07-0.09,1.6l-0.29,6.42c-0.12,4.28,0.03,8.57,0.37,12.85c1.41,17.1,6.45,33.91,14.65,49
			c8.29,15.05,19.66,28.38,33.24,38.87c13.6,10.44,29.31,18.16,45.95,22.17c8.3,2.02,16.81,3.2,25.32,3.45
			c2.13,0.01,4.26,0.04,6.39,0.03c2.13-0.09,4.25-0.12,6.37-0.31c4.24-0.28,8.46-0.82,12.64-1.56c16.71-2.99,32.73-9.49,46.53-19.06
			c-14.5,8.45-30.53,14.04-46.98,16.17C847.85,1212.03,831.04,1210.94,815.16,1206.62z"/>
		<path class="st0" d="M850.83,1242.85c-2.57-0.02-5.14,0.07-7.71-0.08l-3.85-0.16c-0.64-0.03-1.28-0.04-1.92-0.09l-1.92-0.18
			c-10.23-0.82-20.37-2.58-30.21-5.4c-39.45-11.09-73.76-38.57-93.2-74.46c-19.75-35.73-24.08-79.52-12.07-118.68
			c5.97-19.58,15.87-38.01,29.03-53.85c13.1-15.9,29.45-29.16,47.78-38.97c-18.93,8.64-36.03,21.43-49.98,37.08
			c-6.96,7.85-13.14,16.41-18.4,25.53l-0.99,1.7l-0.94,1.74c-0.62,1.16-1.26,2.31-1.85,3.49c-1.16,2.36-2.34,4.72-3.38,7.14
			c-1.11,2.39-2.04,4.85-3.05,7.29c-0.89,2.48-1.86,4.94-2.63,7.46c-6.64,20.04-8.94,41.49-7.06,62.55
			c1.9,21.08,8.19,41.76,18.31,60.37c10.2,18.57,24.16,35.04,40.81,48.1c16.67,13.01,35.94,22.72,56.38,27.99
			c10.21,2.65,20.67,4.3,31.18,4.81l1.97,0.12c0.66,0.03,1.31,0.02,1.97,0.03l3.94,0.04c2.63,0.08,5.25-0.09,7.88-0.16
			c5.24-0.3,10.47-0.8,15.66-1.58c20.73-3.21,40.75-10.68,58.24-21.94c-18.16,10.12-38.17,16.69-58.63,19.05
			C861.11,1242.38,855.97,1242.72,850.83,1242.85z"/>
		<path class="st0" d="M795.78,1012.43l-1.04,0.67l-2.09,1.35c-1.38,0.91-2.81,1.78-4.1,2.83l-3.96,3.03
			c-1.26,1.08-2.49,2.21-3.74,3.31c-0.62,0.56-1.26,1.1-1.85,1.69l-1.72,1.81l-1.73,1.81c-0.57,0.61-1.18,1.19-1.68,1.85l-3.17,3.89
			l-0.79,0.97l-0.72,1.03l-1.44,2.06c-2.02,2.69-3.58,5.67-5.29,8.56c-0.77,1.49-1.47,3.02-2.21,4.53
			c-0.36,0.76-0.74,1.51-1.09,2.28l-0.92,2.35c-2.65,6.2-4.26,12.79-5.43,19.43l-0.66,5.02l-0.16,1.26
			c-0.04,0.42-0.05,0.84-0.07,1.26l-0.13,2.53c-0.23,3.37-0.23,6.75-0.03,10.13c0.79,13.5,4.62,26.83,11.06,38.75
			c6.56,11.85,15.66,22.29,26.55,30.32c10.95,7.93,23.57,13.57,36.81,16.07c13.22,2.57,26.94,2.1,39.86-1.2
			c12.92-3.31,24.99-9.58,34.99-18.1c-10.8,7.46-22.94,12.82-35.64,15.25c-6.32,1.31-12.78,1.83-19.2,1.75
			c-6.42-0.11-12.83-0.79-19.06-2.25c-6.23-1.44-12.29-3.54-18.07-6.21c-5.78-2.68-11.26-5.99-16.32-9.83
			c-10.14-7.68-18.63-17.5-24.7-28.65c-12.3-22.24-14.34-49.86-5.49-73.87l0.79-2.26c0.31-0.74,0.64-1.46,0.96-2.2
			c0.65-1.46,1.27-2.94,1.95-4.39c1.54-2.8,2.93-5.71,4.72-8.37l1.28-2.04l0.64-1.02l0.72-0.97l2.87-3.88
			c0.46-0.67,1.02-1.25,1.53-1.86l1.58-1.83l1.58-1.83c0.54-0.6,1.13-1.15,1.69-1.73c1.14-1.14,2.26-2.31,3.42-3.44l3.66-3.19
			c1.19-1.11,2.52-2.03,3.82-3.01l1.95-1.46l0.97-0.74l1.02-0.66l4.11-2.64c0.67-0.47,1.41-0.82,2.12-1.21l2.15-1.16l2.15-1.18
			c0.72-0.39,1.48-0.69,2.22-1.04l4.48-2.03c-6.23,2.04-12.39,4.51-18.11,7.87L795.78,1012.43z"/>
		<path class="st0" d="M1155.09,1351.67c67.88,0,131.7-26.43,179.7-74.43c48-48,74.43-111.82,74.43-179.7
			c0-90.49-47.79-173.01-124.14-218.41c-0.18-0.11-0.36-0.21-0.54-0.32c-1.9-1.12-3.81-2.23-5.75-3.31
			c-0.14-0.08-0.28-0.16-0.43-0.24c-1.07-0.6-2.15-1.18-3.23-1.76c-0.3-0.16-0.59-0.32-0.89-0.47c-0.96-0.51-1.93-1.02-2.9-1.52
			c-0.43-0.22-0.87-0.44-1.3-0.66c-0.87-0.44-1.73-0.88-2.61-1.31c-0.56-0.28-1.12-0.55-1.69-0.82c-0.77-0.37-1.54-0.75-2.31-1.11
			c-0.72-0.34-1.45-0.67-2.17-1c-0.64-0.29-1.27-0.59-1.91-0.88c-0.52-0.23-1.05-0.46-1.57-0.69c0.51-3.24,0.97-6.48,1.33-9.63
			c1.17-9.81,1.77-19.9,1.77-29.99c0-67.88-26.43-131.69-74.43-179.69c-48-48-111.81-74.43-179.69-74.43
			c-67.88,0-131.7,26.43-179.69,74.43c-48,48-74.43,111.81-74.43,179.69c0,9.14,0.49,18.28,1.46,27.2
			c-46.94,18.07-87.13,49.36-116.33,90.65c-30.42,43.01-46.5,93.69-46.5,146.56c0,61.51,21.74,119.66,61.53,165.75
			c0.17,0.2,0.35,0.4,0.52,0.6c0.73,0.84,1.46,1.68,2.2,2.51c1.07,1.2,2.14,2.39,3.23,3.57c0.07,0.08,0.15,0.16,0.22,0.24
			c1.1,1.18,2.2,2.36,3.32,3.52c0.28,0.29,0.57,0.58,0.85,0.87c0.85,0.88,1.7,1.76,2.57,2.63c2.26,2.26,4.56,4.45,6.89,6.62
			c0.48,0.44,0.95,0.89,1.43,1.32c1,0.91,2.01,1.81,3.02,2.71c0.34,0.31,0.69,0.61,1.03,0.91c1.17,1.03,2.36,2.05,3.55,3.06
			c0.04,0.03,0.07,0.06,0.11,0.09c0.04,0.03,0.08,0.06,0.12,0.1c1.38,1.16,2.77,2.3,4.17,3.43c0.06,0.05,0.12,0.09,0.18,0.14
			c32.94,26.58,71.55,44.26,112.89,51.83c0.19,0.03,0.38,0.07,0.57,0.1c1.97,0.36,3.95,0.7,5.94,1.01c0.12,0.02,0.25,0.04,0.37,0.06
			c1.53,0.24,3.07,0.46,4.6,0.67c0.5,0.07,1,0.14,1.51,0.2c1.3,0.17,2.61,0.33,3.91,0.48c0.74,0.09,1.49,0.17,2.23,0.25
			c1.14,0.12,2.29,0.24,3.43,0.34c0.92,0.08,1.84,0.16,2.76,0.24c1.02,0.08,2.04,0.17,3.06,0.24c1.07,0.07,2.14,0.14,3.21,0.2
			c0.91,0.05,1.81,0.11,2.72,0.15c1.25,0.06,2.5,0.1,3.76,0.14c0.74,0.02,1.49,0.06,2.23,0.07c1.9,0.04,3.81,0.07,5.72,0.07
			c0.1,0,0.2,0,0.3,0c24.21,0,47.89-3.34,70.57-9.87c28.28-8.14,55-21.25,79.25-38.99c21.75,17.63,46.04,31.46,72.23,41.08
			C1095.49,1346.45,1124.97,1351.67,1155.09,1351.67z M1006.77,578.48c136.15,0,246.91,110.77,246.91,246.92
			c0,9.81-0.58,19.61-1.72,29.15c-0.29,2.49-0.64,5.02-1.02,7.57c-2.42-0.98-4.82-1.93-7.19-2.81c-0.51-0.19-1.03-0.37-1.55-0.56
			c-2.9-1.06-5.83-2.07-8.78-3.03c-2.07-0.67-4.15-1.31-6.24-1.92c0.32-2.54,0.61-5.15,0.85-7.82c0.63-6.72,0.95-13.64,0.95-20.58
			c0-59.36-23.12-115.17-65.09-157.14c-41.97-41.97-97.78-65.09-157.14-65.09c-59.36,0-115.17,23.11-157.14,65.09
			c-41.97,41.97-65.09,97.78-65.09,157.14c0,5.87,0.24,11.72,0.7,17.46c0.08,1.04,0.16,2.08,0.25,3.11
			c0.02,0.17,0.04,0.34,0.05,0.52c0.11,1.21,0.23,2.41,0.36,3.62c0.91,8.24,2.28,16.43,4.09,24.44c0.26,1.17,0.53,2.33,0.82,3.49
			c0,0.01,0,0.01,0.01,0.02c0.28,1.17,0.6,2.33,0.9,3.49c8.12,31.17,23.23,60.7,43.88,85.61c20.55,24.78,46.64,45.09,75.58,58.9
			c0,0,0,0,0,0c-0.84,2.87-1.64,5.75-2.38,8.64c-0.04,0.16-0.09,0.31-0.13,0.47c-0.49,1.96-0.95,3.92-1.4,5.89
			c-0.72,3.17-1.38,6.34-1.97,9.51h0c-67.29-30.37-118.2-90.27-137.17-161.48c-0.27-1.02-0.54-2.04-0.8-3.07
			c-0.04-0.15-0.07-0.3-0.11-0.44c-0.29-1.17-0.58-2.35-0.86-3.53c-1.91-8.13-3.4-16.4-4.46-24.67c-0.12-0.94-0.24-1.89-0.35-2.83
			c-0.03-0.28-0.06-0.56-0.09-0.84c-0.14-1.22-0.27-2.45-0.4-3.68c-0.81-8.1-1.23-16.36-1.23-24.62
			C759.85,689.25,870.62,578.48,1006.77,578.48z M1093.96,1142.73c1.43-6.74,2.6-13.54,3.48-20.41
			c9.63,22.31,31.85,37.97,57.65,37.97c34.61,0,62.77-28.16,62.77-62.77s-28.16-62.77-62.77-62.77c-1.55,0-3.07,0.08-4.59,0.19
			c14.87-10.21,28.68-22,41.07-35.12c25.79-27.32,45.43-60.44,56.97-95.99c0.18,0.09,0.37,0.17,0.55,0.26
			c0.33,0.16,0.65,0.32,0.98,0.48c1.22,0.6,2.43,1.21,3.63,1.83c0.17,0.09,0.34,0.18,0.51,0.27c1.87,0.97,3.72,1.98,5.56,3.01
			c0.52,0.29,1.04,0.59,1.56,0.88c1.26,0.72,2.51,1.45,3.75,2.2c1.05,0.63,2.09,1.26,3.13,1.91c0.7,0.44,1.4,0.88,2.1,1.32
			c1.46,0.93,2.91,1.88,4.35,2.85c0.31,0.21,0.63,0.42,0.94,0.64c1.68,1.14,3.35,2.31,5.01,3.5c0.16,0.12,0.32,0.23,0.48,0.35
			c1.67,1.21,3.32,2.45,4.96,3.71c0.29,0.22,0.57,0.44,0.86,0.66c1.38,1.08,2.76,2.17,4.11,3.28c0.71,0.58,1.41,1.16,2.11,1.75
			c0.82,0.69,1.64,1.38,2.45,2.08c1.41,1.22,2.81,2.45,4.19,3.7c0.49,0.45,0.98,0.9,1.47,1.36c0.45,0.42,0.9,0.84,1.35,1.26
			c42.29,40.02,67.53,96.41,67.53,156.39c0,118.56-96.46,215.02-215.03,215.02c-47.35,0-92.07-15-129.62-43.44
			c1.09-1.1,2.18-2.22,3.27-3.35c1.29-1.35,2.58-2.71,3.85-4.09c1.21-1.32,2.4-2.65,3.58-3.99c0.31-0.36,0.63-0.72,0.94-1.07
			c0.95-1.09,1.88-2.18,2.81-3.28c0.25-0.3,0.5-0.59,0.75-0.89c1.13-1.35,2.24-2.71,3.34-4.09c0.25-0.31,0.49-0.62,0.74-0.93
			c0.87-1.1,1.73-2.2,2.58-3.31c0.32-0.41,0.63-0.82,0.94-1.24c0.98-1.3,1.96-2.61,2.91-3.93c0.08-0.11,0.16-0.22,0.24-0.33
			c1.01-1.4,2-2.81,2.98-4.22c0.31-0.45,0.62-0.9,0.93-1.36c0.73-1.07,1.45-2.14,2.16-3.22c0.28-0.42,0.56-0.84,0.84-1.27
			c0.92-1.41,1.83-2.83,2.72-4.25c0.26-0.41,0.51-0.83,0.76-1.24c0.67-1.08,1.33-2.17,1.98-3.27c0.31-0.52,0.62-1.05,0.93-1.57
			c0.7-1.19,1.38-2.38,2.06-3.57c0.18-0.32,0.37-0.64,0.55-0.97c0.81-1.44,1.59-2.89,2.37-4.35c0.29-0.55,0.58-1.1,0.87-1.65
			c0.54-1.03,1.07-2.07,1.6-3.1c0.28-0.55,0.56-1.1,0.83-1.65c0.72-1.45,1.44-2.91,2.13-4.38c0.24-0.5,0.46-1,0.69-1.49
			c0.5-1.07,0.99-2.14,1.47-3.21c0.28-0.63,0.56-1.26,0.84-1.9c0.47-1.06,0.92-2.12,1.37-3.19c0.23-0.53,0.46-1.06,0.68-1.6
			c0.61-1.46,1.19-2.93,1.77-4.4c0.26-0.67,0.52-1.34,0.78-2.02c0.36-0.94,0.72-1.89,1.07-2.84c0.26-0.71,0.52-1.41,0.78-2.12
			c0.42-1.18,0.84-2.36,1.24-3.55c0.33-0.95,0.64-1.9,0.96-2.86c0.3-0.92,0.61-1.85,0.9-2.78c0.26-0.81,0.51-1.63,0.76-2.45
			c0.25-0.82,0.49-1.64,0.73-2.46c0.24-0.83,0.49-1.66,0.73-2.49c0.39-1.39,0.77-2.78,1.14-4.18c0.25-0.95,0.49-1.9,0.73-2.84
			c0.17-0.66,0.33-1.32,0.49-1.97c0.24-1,0.48-2,0.72-3c0.12-0.51,0.23-1.02,0.34-1.53c0.22-0.98,0.44-1.96,0.65-2.94H1093.96z
			 M1098.75,1069.9c-0.19-2.44-0.41-4.87-0.67-7.29c2.29-0.88,4.58-1.8,6.85-2.75C1102.57,1062.99,1100.5,1066.35,1098.75,1069.9z
			 M1155.09,1041.97c30.64,0,55.56,24.93,55.56,55.56c0,30.64-24.93,55.56-55.56,55.56c-30.64,0-55.56-24.93-55.56-55.56
			C1099.53,1066.9,1124.45,1041.97,1155.09,1041.97z M1241.95,900.8c-22.48,70.14-76.21,127.43-144.77,154.43
			c-1.15,0.45-2.3,0.9-3.45,1.33c-0.27,0.1-0.53,0.2-0.8,0.3c-0.89,0.33-1.78,0.65-2.67,0.97c-7.86,2.83-15.9,5.27-23.99,7.27
			c-1.18,0.29-2.36,0.57-3.53,0.84c-0.15,0.03-0.29,0.07-0.44,0.11c-1.03,0.24-2.06,0.46-3.1,0.69
			c-35.34,7.63-72.75,7.39-107.95-0.69c-2.89-0.67-5.75-1.38-8.55-2.13c0.11-0.68,0.2-1.35,0.31-2.03
			c0.62-3.75,1.36-7.48,2.18-11.17c0.31-1.38,0.62-2.77,0.95-4.14c0.54-2.24,1.16-4.54,1.8-6.85c2.31,0.63,4.61,1.24,6.9,1.79
			c16.92,4.05,34.39,6.11,51.93,6.11c16.32,0,32.58-1.8,48.39-5.32c1.17-0.26,2.35-0.51,3.52-0.79c0.01,0,0.01,0,0.02,0
			c1.16-0.28,2.32-0.57,3.48-0.87c7.96-2.04,15.87-4.55,23.62-7.49c1.13-0.43,2.26-0.87,3.39-1.32c0.16-0.06,0.32-0.13,0.49-0.19
			c0.97-0.39,1.92-0.8,2.88-1.21c29.61-12.41,56.67-31.46,78.4-55.27c21.73-23.81,38.21-52.47,47.83-83.07c0,0,0,0,0,0
			c5.57,1.72,11.11,3.68,16.51,5.86C1237.49,898.85,1239.72,899.81,1241.95,900.8C1241.95,900.8,1241.95,900.8,1241.95,900.8z
			 M900.97,1089.81c0,30.64-24.93,55.57-55.56,55.57s-55.56-24.93-55.56-55.57c0-30.64,24.93-55.56,55.56-55.56
			S900.97,1059.17,900.97,1089.81z M897.54,1054.9c2.16,1.03,4.34,2.03,6.53,3c-0.37,2.38-0.71,4.75-1.01,7.12
			C901.53,1061.46,899.68,1058.07,897.54,1054.9z M845.41,1027.04c-34.61,0-62.77,28.16-62.77,62.77
			c0,34.61,28.16,62.77,62.77,62.77c24.71,0,46.12-14.35,56.35-35.15c4.34,55.77,26.87,108.42,64.57,150.22
			c-5.09,3.47-10.3,6.7-15.62,9.7c-1.77,1-3.56,1.97-5.36,2.92c-30.66,16.14-64.72,24.58-99.95,24.58c-0.04,0-0.07,0-0.11,0
			c-1.65,0-3.3-0.02-4.94-0.06c-0.72-0.02-1.43-0.05-2.15-0.07c-0.91-0.03-1.82-0.06-2.72-0.1c-0.97-0.05-1.95-0.1-2.92-0.16
			c-0.55-0.03-1.1-0.07-1.65-0.11c-1.25-0.08-2.49-0.17-3.73-0.28c-0.04,0-0.08-0.01-0.13-0.01
			c-67.79-5.85-128.13-43.81-163.56-99.71c-0.13-0.21-0.26-0.42-0.39-0.62c-0.65-1.03-1.29-2.06-1.92-3.1
			c-0.55-0.91-1.09-1.83-1.63-2.75c-0.23-0.39-0.46-0.78-0.69-1.17c-0.85-1.48-1.68-2.96-2.5-4.46c-0.01-0.02-0.02-0.03-0.03-0.05
			c-0.82-1.51-1.62-3.02-2.4-4.55c0-0.01-0.01-0.02-0.01-0.03c-0.8-1.55-1.57-3.11-2.32-4.68c-0.18-0.37-0.36-0.75-0.54-1.12
			c-0.61-1.28-1.2-2.57-1.78-3.86c-0.31-0.69-0.62-1.38-0.92-2.07c-0.46-1.05-0.91-2.1-1.35-3.15c-0.4-0.96-0.8-1.92-1.19-2.89
			c-0.34-0.85-0.68-1.69-1.01-2.54c-0.44-1.14-0.88-2.29-1.3-3.45c-0.27-0.73-0.54-1.46-0.8-2.19c-0.39-1.1-0.77-2.21-1.15-3.33
			c-0.28-0.83-0.56-1.66-0.83-2.49c-0.29-0.89-0.57-1.78-0.85-2.67c-0.34-1.1-0.67-2.21-1-3.32c-0.24-0.81-0.47-1.62-0.69-2.44
			c-0.34-1.24-0.68-2.48-1-3.72c-4.46-17.22-6.83-35.27-6.83-53.86c0-86.92,51.29-164.2,131.04-198.01
			c9.79,36.22,27.85,70.37,52.4,98.98c11.63,13.55,24.71,25.87,38.91,36.7C850.33,1027.2,847.89,1027.04,845.41,1027.04z
			 M908.4,1107.79L908.4,1107.79c-0.02-0.38-0.03-0.77-0.04-1.15c-0.05-1.28-0.09-2.56-0.12-3.85c-0.04-1.64-0.05-3.28-0.06-4.92
			c0-0.11,0-0.23,0-0.34c0-6.48,0.26-12.97,0.76-19.38c0.24-3.06,0.53-6.09,0.88-9.11c0.03-0.22,0.05-0.44,0.07-0.66
			c0.29-2.51,0.65-5.04,1.02-7.57c0.18-1.23,0.37-2.45,0.57-3.68c0.04-0.28,0.08-0.55,0.13-0.83c0.16-0.93,0.33-1.86,0.5-2.79
			c0.47-2.6,0.98-5.21,1.53-7.82c0.63-2.93,1.3-5.86,2.03-8.76c0.35-1.37,0.72-2.74,1.1-4.12c0.34-1.24,0.68-2.47,1.04-3.71
			c0.12-0.41,0.24-0.81,0.36-1.22c0.22-0.76,0.44-1.52,0.66-2.27c0.04-0.14,0.08-0.29,0.13-0.43c0.31-1.01,0.64-2.02,0.96-3.03
			c0.3-0.92,0.6-1.85,0.9-2.77c0.16-0.49,0.33-0.98,0.5-1.47c0.62-1.83,1.26-3.65,1.93-5.46c0.04-0.1,0.07-0.21,0.11-0.31
			c0.69-1.88,1.42-3.75,2.16-5.61c0.21-0.52,0.41-1.03,0.62-1.55c0.67-1.65,1.35-3.29,2.06-4.92c0.11-0.25,0.21-0.49,0.31-0.74
			c0.78-1.79,1.58-3.56,2.41-5.33c0.27-0.57,0.53-1.14,0.8-1.71c0.69-1.45,1.39-2.89,2.1-4.33c0.2-0.39,0.38-0.79,0.58-1.18
			c0.85-1.69,1.72-3.36,2.61-5.02c0.33-0.63,0.67-1.25,1.01-1.87c0.69-1.27,1.4-2.54,2.11-3.8c0.29-0.5,0.57-1.01,0.85-1.52
			c0.92-1.59,1.85-3.17,2.8-4.74c0.4-0.66,0.8-1.31,1.21-1.96c0.71-1.15,1.43-2.29,2.15-3.42c0.36-0.57,0.72-1.13,1.08-1.7
			c0.86-1.31,1.73-2.62,2.61-3.92h0.01c6.76-9.95,14.23-19.43,22.37-28.28c2.45-2.67,4.97-5.29,7.53-7.83
			c0.19,0.15,0.39,0.31,0.58,0.46c6.16,5.05,12.08,10.5,17.68,16.2c-2.73,2.69-5.39,5.44-7.93,8.22c-3.32,3.63-6.51,7.39-9.58,11.23
			h-0.02c-0.4,0.51-0.79,1.02-1.19,1.53c-0.61,0.78-1.22,1.56-1.82,2.34c-0.61,0.8-1.2,1.61-1.8,2.42
			c-0.65,0.88-1.31,1.76-1.95,2.65c-0.97,1.35-1.93,2.71-2.88,4.09c-0.52,0.76-1.03,1.53-1.54,2.3c-0.57,0.86-1.15,1.71-1.71,2.58
			c-0.52,0.8-1.02,1.6-1.53,2.4c-0.54,0.85-1.08,1.71-1.6,2.57c-0.49,0.8-0.98,1.61-1.46,2.42c-0.53,0.89-1.05,1.78-1.56,2.67
			c-0.46,0.79-0.91,1.58-1.36,2.38c-0.54,0.96-1.06,1.93-1.59,2.9c-0.4,0.74-0.81,1.48-1.2,2.22c-0.64,1.23-1.27,2.46-1.89,3.7
			c-0.25,0.5-0.51,0.99-0.76,1.49c-0.84,1.71-1.66,3.42-2.45,5.15c-0.29,0.64-0.57,1.28-0.86,1.92c-0.52,1.15-1.03,2.3-1.53,3.46
			c-0.31,0.72-0.61,1.44-0.91,2.16c-0.46,1.1-0.91,2.2-1.35,3.3c-0.29,0.74-0.58,1.48-0.87,2.22c-0.43,1.12-0.85,2.24-1.27,3.37
			c-0.26,0.71-0.53,1.43-0.78,2.14c-0.44,1.23-0.86,2.46-1.27,3.7c-0.21,0.62-0.42,1.23-0.62,1.85c-0.23,0.7-0.44,1.4-0.66,2.1
			c-0.35,1.12-0.7,2.23-1.04,3.35c-0.01,0.03-0.02,0.06-0.03,0.09c0,0.01,0,0.01-0.01,0.02c0,0.01-0.01,0.03-0.01,0.04
			c-0.34,1.14-0.66,2.27-0.98,3.4c-0.18,0.63-0.35,1.26-0.52,1.88c0,0.01-0.01,0.02-0.01,0.03c-0.48,1.77-0.93,3.53-1.35,5.26
			c-0.19,0.78-0.36,1.56-0.54,2.35c-1.12,4.84-2.09,9.76-2.88,14.69c-0.19,1.2-0.38,2.39-0.55,3.59c-0.02,0.17-0.06,0.35-0.08,0.52
			c-0.14,1.02-0.28,2.05-0.41,3.09c-0.1,0.75-0.19,1.51-0.28,2.27c-0.21,1.82-0.4,3.67-0.58,5.54c-0.63,6.72-0.95,13.65-0.95,20.58
			v0c0,0.04,0,0.07,0,0.11c0,3.34,0.09,6.73,0.25,10.14h-0.01c2.38,51.93,22.75,101.2,57.98,139.7c0.08,0.08,0.16,0.17,0.23,0.25
			c-0.15,0.14-0.3,0.28-0.45,0.43c-1.37,1.27-2.78,2.52-4.2,3.75c-1.76,1.54-3.53,3.05-5.34,4.53c-2.98,2.44-6.03,4.78-9.07,7.01
			C933.23,1220.49,910.78,1165.6,908.4,1107.79z M796.82,880.31c-0.17-0.64-0.35-1.27-0.51-1.9c0.64-0.15,1.29-0.27,1.93-0.42
			c15.41-3.42,31.26-5.17,47.17-5.17c47.87,0,93.08,15.21,131.02,44.01c0.52,0.4,1.05,0.78,1.57,1.19
			c-0.47,0.46-0.93,0.94-1.39,1.41c-2.46,2.46-4.89,4.97-7.25,7.55c-9.11,9.91-17.41,20.58-24.82,31.83
			c-12.51,18.98-22.46,39.63-29.42,61.14c-0.2,0.63-0.42,1.26-0.62,1.89c-0.59-0.28-1.17-0.58-1.76-0.86c0,0,0,0,0,0
			C855.72,993.49,812.76,941.36,796.82,880.31z M1002.65,943.15c0.47-0.46,0.93-0.92,1.4-1.37c0.45,0.48,0.89,0.96,1.33,1.44
			c0.06,0.06,0.12,0.13,0.18,0.19c23.79,26.01,40.96,57.58,49.81,91.5c0.17,0.64,0.33,1.27,0.49,1.91
			c-0.64,0.15-1.28,0.27-1.92,0.41c-15.41,3.42-31.26,5.17-47.17,5.17c-17.13,0-34.2-2.01-50.71-5.96c-2.2-0.52-4.42-1.11-6.64-1.72
			c0,0,0,0,0,0c-0.63-0.17-1.27-0.34-1.9-0.52c0.19-0.63,0.4-1.25,0.6-1.87c8.41-26.7,22.17-51.87,40.16-73.51
			c2.17-2.61,4.39-5.18,6.68-7.69C997.41,948.43,1000,945.76,1002.65,943.15z M940.31,1107.79h0.01c-0.16-3.32-0.25-6.62-0.25-9.86
			c0-0.13,0-0.26,0-0.39c0-6.71,0.31-13.4,0.92-19.91c0.11-1.15,0.22-2.29,0.34-3.43c0.11-1.04,0.23-2.06,0.35-3.08
			c2.61,0.69,5.27,1.35,7.95,1.97c18.65,4.28,37.87,6.45,57.14,6.45c17.87,0,35.7-1.87,53.07-5.56c0.39,5.21,0.59,10.52,0.59,15.84
			c0,18.34-2.32,36.41-6.82,53.83c-0.09,0.36-0.19,0.73-0.28,1.09c-0.33,1.25-0.67,2.49-1.02,3.73c-0.05,0.19-0.11,0.39-0.16,0.58
			c-0.38,1.34-0.78,2.67-1.19,4.01c-0.14,0.46-0.28,0.92-0.43,1.37c-0.32,1.01-0.64,2.02-0.98,3.02c-0.17,0.5-0.33,1.01-0.5,1.51
			c-0.37,1.09-0.75,2.18-1.14,3.26c-0.22,0.62-0.45,1.24-0.68,1.86c-0.26,0.7-0.52,1.4-0.79,2.1c-0.42,1.1-0.85,2.2-1.28,3.3
			c-0.23,0.58-0.46,1.16-0.7,1.74c-0.32,0.78-0.65,1.57-0.98,2.35c-0.18,0.42-0.35,0.83-0.53,1.24c-0.69,1.6-1.4,3.2-2.13,4.79
			c-0.08,0.17-0.15,0.34-0.23,0.5c-0.42,0.9-0.84,1.79-1.27,2.69c-0.1,0.21-0.21,0.43-0.31,0.64c-1.35,2.78-2.75,5.54-4.22,8.26
			c-0.07,0.14-0.15,0.27-0.22,0.4c-1,1.84-2.02,3.67-3.07,5.48c0,0-0.01,0.01-0.01,0.01c-0.52,0.89-1.04,1.77-1.57,2.66
			c-0.12,0.2-0.24,0.4-0.36,0.59c-0.95,1.57-1.92,3.13-2.9,4.67c-0.14,0.22-0.28,0.44-0.42,0.66c-0.49,0.77-1,1.53-1.5,2.3
			c-0.26,0.39-0.52,0.77-0.78,1.16c-0.76,1.14-1.54,2.27-2.32,3.39c-0.37,0.53-0.74,1.06-1.11,1.58c-0.43,0.6-0.86,1.2-1.3,1.8
			c-0.48,0.66-0.96,1.31-1.45,1.96c-0.48,0.65-0.97,1.3-1.46,1.94c-0.64,0.84-1.28,1.67-1.94,2.5c-0.34,0.43-0.69,0.87-1.03,1.3
			c-0.74,0.93-1.49,1.85-2.25,2.76c-0.19,0.23-0.38,0.47-0.58,0.7c-0.87,1.05-1.76,2.09-2.66,3.12c-0.27,0.32-0.55,0.63-0.82,0.94
			c-0.94,1.07-1.89,2.13-2.85,3.19c-0.03,0.03-0.06,0.07-0.09,0.1c-1.67,1.82-3.37,3.61-5.09,5.36c-0.83,0.85-1.67,1.69-2.51,2.51
			c-0.04-0.05-0.09-0.09-0.13-0.14C962.38,1205.46,942.68,1157.91,940.31,1107.79z M1213.76,890.61
			c-18.94,60.13-64.35,110.06-122.5,134.69c-0.6,0.26-1.2,0.53-1.81,0.78c-0.17-0.64-0.34-1.28-0.52-1.92
			c-10.29-38.23-29.72-73.84-56.38-103.35c-0.44-0.49-0.88-0.98-1.33-1.47c0.54-0.38,1.08-0.74,1.63-1.11
			c36.1-24.65,78.28-37.68,122.23-37.68c4.13,0,8.25,0.12,12.36,0.35c12.97,0.73,25.83,2.6,38.35,5.6c2.26,0.54,4.47,1.12,6.65,1.72
			c0.63,0.17,1.28,0.34,1.9,0.52C1214.16,889.37,1213.95,889.99,1213.76,890.61z M1084.03,1026.13c-7.72,2.97-15.61,5.5-23.56,7.54
			c-9.05-34.78-26.66-67.15-51.05-93.82c-0.08-0.09-0.16-0.17-0.24-0.26c-0.81-0.88-1.63-1.76-2.46-2.64c0,0-0.01-0.01-0.01-0.01
			c-0.82-0.87-1.65-1.73-2.49-2.58c-5.77-5.89-11.9-11.5-18.27-16.72c-0.03-0.02-0.06-0.05-0.08-0.07c-0.91-0.74-1.83-1.47-2.75-2.2
			c-0.13-0.1-0.26-0.21-0.4-0.32c-0.82-0.65-1.65-1.28-2.48-1.91c-38.99-29.82-85.54-45.57-134.84-45.57
			c-16.33,0-32.59,1.8-48.4,5.32c-1.81-8-3.16-16.18-4.03-24.42c17.13-3.7,34.75-5.57,52.43-5.57c55.89,0,110.36,19.09,153.92,53.84
			c0.97,0.77,1.93,1.55,2.89,2.34c0.21,0.17,0.43,0.34,0.64,0.52c0.53,0.44,1.05,0.87,1.58,1.32c0.2,0.17,0.4,0.34,0.59,0.51
			c6.38,5.42,12.49,11.16,18.25,17.15c0.84,0.87,1.67,1.75,2.49,2.63c0.12,0.13,0.24,0.25,0.35,0.38c0.39,0.4,0.76,0.81,1.14,1.22
			c0.32,0.35,0.64,0.71,0.97,1.07C1054.71,953.01,1073.95,988.28,1084.03,1026.13z M999.54,887.75c2.38,0.27,4.79,0.43,7.23,0.43
			c1.51,0,3.01-0.07,4.5-0.18c-2.02,1.39-4.01,2.82-6,4.27C1003.38,890.74,1001.47,889.22,999.54,887.75z M1006.77,880.97
			c-30.64,0-55.57-24.93-55.57-55.56c0-30.64,24.93-55.56,55.57-55.56c30.64,0,55.56,24.93,55.56,55.56
			C1062.33,856.05,1037.41,880.97,1006.77,880.97z M1069.54,825.41c0-34.61-28.16-62.77-62.77-62.77
			c-34.61,0-62.77,28.16-62.77,62.77c0,12.9,3.92,24.9,10.61,34.88c-7.04-3.35-14.23-6.39-21.58-9.09
			c-28.02-10.29-57.5-15.51-87.62-15.51c-17.89,0-35.72,1.87-53.08,5.55c-0.39-5.21-0.59-10.52-0.59-15.84
			c0-118.56,96.46-215.02,215.03-215.02c118.56,0,215.02,96.46,215.02,215.02c0,6.71-0.31,13.41-0.92,19.91v0.01
			c-0.2,2.21-0.44,4.39-0.7,6.51c-2.59-0.69-5.25-1.35-7.95-1.97c-0.03-0.01-0.05-0.01-0.08-0.02c-1.61-0.37-3.22-0.72-4.84-1.05
			c-0.36-0.07-0.72-0.15-1.08-0.22c-1.64-0.33-3.28-0.65-4.92-0.96c-0.15-0.03-0.31-0.05-0.46-0.08c-1.61-0.29-3.22-0.57-4.84-0.83
			c-0.2-0.03-0.4-0.07-0.61-0.1c-1.74-0.28-3.49-0.54-5.24-0.78c-0.13-0.02-0.25-0.03-0.38-0.05c-3.64-0.5-7.29-0.91-10.95-1.25
			c-0.05,0-0.1-0.01-0.14-0.01c-1.89-0.17-3.79-0.33-5.69-0.46c-1.27-0.09-2.54-0.15-3.81-0.22c-0.58-0.03-1.16-0.08-1.75-0.1v0
			c-4.11-0.2-8.23-0.31-12.36-0.31c-34.19,0-67.32,6.68-98.07,19.56C1064.88,852.5,1069.54,839.49,1069.54,825.41z M993.19,1287.64
			c-0.22,0.16-0.44,0.32-0.66,0.49c-0.99,0.74-1.99,1.47-2.99,2.19c-17.83,12.85-37.01,23.13-57.17,30.72
			c-27.5,10.35-56.81,15.69-86.95,15.69c-0.12,0-0.24,0-0.37,0c-1.86,0-3.71-0.03-5.55-0.07c-0.68-0.02-1.36-0.04-2.04-0.07
			c-1.3-0.04-2.61-0.09-3.91-0.15c-0.76-0.04-1.51-0.08-2.26-0.12c-1.24-0.07-2.48-0.15-3.72-0.24c-0.74-0.05-1.47-0.11-2.21-0.17
			c-1.3-0.11-2.61-0.22-3.91-0.35c-0.64-0.06-1.27-0.12-1.91-0.19c-1.57-0.16-3.14-0.35-4.71-0.54c-0.34-0.04-0.69-0.08-1.03-0.12
			c-102.65-13.14-187.28-89.42-209.62-191.98h0.03c-3.74-17.06-5.73-34.76-5.73-52.92c0-101.12,62.71-192.9,156.51-229.83
			c1.12,8.31,2.67,16.61,4.63,24.77c-39.42,16.5-73.06,43.83-97.41,79.21c-25.54,37.11-39.04,80.63-39.04,125.85
			c0,18.07,2.15,35.8,6.32,52.92h0.04c9.93,40.58,31.4,77.81,61.51,106.93c0.01,0.01,0.02,0.02,0.03,0.03
			c0.99,0.95,1.98,1.9,2.99,2.83c0.17,0.16,0.34,0.32,0.51,0.47c1.02,0.94,2.04,1.87,3.07,2.8c0.01,0.01,0.02,0.01,0.02,0.02
			c2.23,1.99,4.51,3.94,6.83,5.84c19.45,15.97,41.24,28.42,64.78,37c14.99,5.47,30.46,9.27,46.24,11.39
			c0.35,0.05,0.71,0.1,1.06,0.14c1.13,0.15,2.27,0.28,3.4,0.41c0.64,0.07,1.27,0.14,1.91,0.21c0.97,0.1,1.95,0.2,2.93,0.29
			c0.81,0.07,1.62,0.14,2.44,0.21c0.86,0.07,1.72,0.14,2.59,0.2c0.95,0.07,1.91,0.12,2.86,0.17c0.76,0.04,1.51,0.09,2.27,0.12
			c1.13,0.05,2.26,0.09,3.39,0.12c0.6,0.02,1.2,0.04,1.81,0.06c1.75,0.04,3.49,0.06,5.24,0.06c17.3,0,34.32-1.97,50.83-5.82
			c1.38-0.32,2.75-0.66,4.12-1c4.1-1.04,8.18-2.2,12.21-3.48c0.12-0.04,0.25-0.08,0.37-0.12c5.15-1.64,10.24-3.47,15.26-5.49
			c2.51-1.01,5-2.06,7.48-3.17c1.24-0.55,2.47-1.11,3.7-1.69c11.05-5.17,21.71-11.28,31.9-18.29c0.86-0.59,1.72-1.18,2.57-1.79
			c0.15-0.1,0.29-0.21,0.44-0.32c0.98-0.7,1.96-1.41,2.95-2.13c2.91-2.14,5.81-4.39,8.66-6.72c1.95-1.6,3.87-3.24,5.77-4.9
			c0.29-0.25,0.58-0.5,0.87-0.76c0.47-0.42,0.93-0.84,1.4-1.26c0.61-0.55,1.22-1.09,1.82-1.64c0.16-0.15,0.32-0.3,0.48-0.45
			c0.02-0.02,0.04-0.03,0.05-0.05c0.88-0.81,1.75-1.63,2.6-2.45c0.01-0.01,0.03-0.02,0.04-0.04c0.86-0.82,1.72-1.65,2.57-2.49
			c2.3-2.27,4.58-4.62,6.81-7.01c0.38-0.41,0.76-0.81,1.14-1.22c0,0,0,0,0,0c0.02-0.02,0.04-0.04,0.06-0.06
			c1.01-1.11,2.01-2.23,2.99-3.35c0.28-0.32,0.57-0.65,0.85-0.97c0.88-1.01,1.75-2.03,2.61-3.06c0.17-0.21,0.35-0.41,0.52-0.62
			c0.88-1.06,1.74-2.12,2.6-3.19c0.35-0.44,0.7-0.88,1.04-1.32c0.63-0.81,1.26-1.62,1.89-2.43c0.47-0.61,0.93-1.22,1.39-1.84
			c0.61-0.82,1.22-1.64,1.82-2.46c0.44-0.6,0.88-1.21,1.31-1.82c0.4-0.56,0.8-1.13,1.2-1.7c0.8-1.15,1.59-2.31,2.37-3.47
			c0.3-0.45,0.6-0.89,0.9-1.34c0.5-0.76,1-1.53,1.5-2.3c0.24-0.38,0.48-0.75,0.72-1.13c1.08-1.7,2.14-3.42,3.17-5.15
			c0.01-0.02,0.02-0.04,0.04-0.06c0.52-0.87,1.03-1.75,1.54-2.63c0.16-0.28,0.33-0.57,0.49-0.85c1.55-2.7,3.04-5.44,4.47-8.21
			c0.16-0.31,0.32-0.63,0.48-0.94c1.37-2.69,2.69-5.41,3.96-8.15c0.21-0.46,0.43-0.93,0.64-1.39c0.36-0.8,0.72-1.59,1.07-2.39
			c0.47-1.08,0.94-2.17,1.4-3.26c0.28-0.68,0.56-1.36,0.83-2.04c0.29-0.72,0.58-1.43,0.86-2.15c0.25-0.62,0.49-1.25,0.73-1.87
			c0.48-1.24,0.94-2.48,1.4-3.73c0.16-0.44,0.31-0.88,0.47-1.33c0.37-1.03,0.72-2.05,1.08-3.08c0.15-0.44,0.3-0.87,0.44-1.31
			c0.47-1.4,0.92-2.81,1.36-4.22c0.05-0.16,0.1-0.32,0.15-0.48c0.42-1.34,0.82-2.69,1.21-4.05c0.08-0.29,0.17-0.58,0.25-0.88
			c0.73-2.58,1.42-5.17,2.06-7.77h-0.02c4.2-17.17,6.37-34.92,6.37-52.92c0-5.87-0.24-11.72-0.7-17.46
			c8.14-1.98,16.24-4.38,24.16-7.17c0.81,8.11,1.22,16.37,1.22,24.62c0,17.96-1.95,35.69-5.72,52.92h0.01
			c-0.68,3.1-1.42,6.18-2.22,9.25c-0.07,0.29-0.15,0.58-0.23,0.87c-0.43,1.65-0.88,3.29-1.35,4.92c-0.01,0.05-0.03,0.1-0.04,0.15
			c-0.51,1.78-1.04,3.56-1.59,5.33c-0.03,0.1-0.06,0.2-0.1,0.31c-0.51,1.64-1.05,3.28-1.59,4.91c-0.05,0.16-0.11,0.33-0.16,0.49
			c-1.17,3.45-2.41,6.87-3.72,10.26c-0.07,0.18-0.14,0.36-0.21,0.53c-1.33,3.4-2.73,6.77-4.21,10.11c-0.05,0.12-0.11,0.24-0.16,0.36
			c-0.68,1.54-1.39,3.07-2.1,4.59c-0.09,0.19-0.18,0.38-0.26,0.56c-1.53,3.23-3.13,6.42-4.79,9.58c-0.14,0.27-0.29,0.55-0.43,0.82
			c-0.79,1.49-1.6,2.97-2.42,4.44c-0.04,0.06-0.07,0.13-0.11,0.19c-0.87,1.55-1.75,3.08-2.65,4.61c-0.16,0.27-0.33,0.55-0.49,0.82
			c-0.76,1.27-1.52,2.53-2.3,3.79c-0.18,0.29-0.36,0.59-0.54,0.88c-0.92,1.48-1.86,2.94-2.81,4.4c-0.11,0.16-0.22,0.33-0.32,0.49
			c-0.84,1.28-1.7,2.55-2.56,3.81c-0.25,0.36-0.5,0.73-0.75,1.09c-0.9,1.3-1.82,2.6-2.74,3.88c-0.08,0.12-0.17,0.23-0.25,0.35
			c-1.01,1.39-2.03,2.77-3.07,4.14c-0.27,0.35-0.54,0.7-0.8,1.05c-0.84,1.1-1.69,2.19-2.55,3.27c-0.24,0.31-0.49,0.62-0.73,0.93
			c-1.07,1.33-2.15,2.66-3.25,3.97c-0.21,0.26-0.43,0.51-0.65,0.77c-0.92,1.09-1.85,2.17-2.78,3.25c-0.3,0.35-0.6,0.69-0.91,1.04
			c-1.15,1.3-2.3,2.59-3.47,3.87c-1.6,1.75-3.23,3.47-4.87,5.15c-0.88,0.91-1.77,1.8-2.66,2.69c-0.76,0.75-1.51,1.5-2.27,2.23
			c-0.11,0.1-0.21,0.2-0.32,0.31c-0.86,0.84-1.74,1.68-2.62,2.51c-3.25,3.07-6.63,6.08-10.09,9c-0.55,0.46-1.11,0.92-1.66,1.38
			c-2.39,1.98-4.84,3.93-7.33,5.84C994.71,1286.49,993.95,1287.07,993.19,1287.64z M1003.38,1288.88c0.89-0.71,1.77-1.42,2.65-2.13
			c0.08-0.06,0.16-0.13,0.23-0.19c0.35-0.29,0.7-0.58,1.05-0.87c0.6-0.49,1.2-0.99,1.79-1.48c3.83-3.23,7.57-6.59,11.16-10
			c38.99,29.81,85.53,45.56,134.83,45.56c59.36,0,115.17-23.11,157.14-65.09c41.97-41.97,65.09-97.78,65.09-157.14
			c0-43.33-12.48-85.32-36.08-121.43c-6.12-9.37-12.91-18.21-20.29-26.49h-0.03c-18.96-21.21-42.07-38.82-67.47-51.4
			c-0.3-0.15-0.6-0.3-0.91-0.45c-0.62-0.3-1.25-0.59-1.88-0.89c-0.91-0.43-1.82-0.88-2.73-1.3c-0.03-0.01-0.06-0.03-0.08-0.04
			c-0.16-0.07-0.32-0.14-0.48-0.21c-1.11-0.51-2.21-0.99-3.32-1.48c-2.03-0.89-4.06-1.76-6.07-2.56
			c-5.61-2.26-11.36-4.29-17.15-6.08c-1.14-0.35-2.28-0.71-3.42-1.04c-0.01,0-0.02-0.01-0.03-0.01c-1.14-0.33-2.3-0.66-3.47-0.98
			c-0.53-0.15-1.06-0.29-1.6-0.43c-0.01,0-0.01,0-0.02-0.01c-1.74-0.46-3.5-0.91-5.29-1.34c-1.89-0.45-3.8-0.87-5.7-1.28
			c-0.64-0.14-1.29-0.26-1.94-0.39c-1.27-0.26-2.53-0.5-3.8-0.73c-0.77-0.14-1.55-0.28-2.32-0.42c-1.19-0.21-2.38-0.39-3.57-0.58
			c-1.23-0.19-2.46-0.38-3.7-0.55c-1.25-0.17-2.49-0.34-3.74-0.5c-1.13-0.14-2.25-0.26-3.38-0.38c-0.74-0.08-1.47-0.16-2.21-0.23
			c-1.21-0.12-2.42-0.22-3.63-0.32c-0.59-0.05-1.19-0.09-1.78-0.13c-1.27-0.09-2.54-0.18-3.81-0.25v0
			c-4.11-0.23-8.23-0.35-12.36-0.35c-45.29,0-88.74,13.5-125.87,39.05c-5.74-6.02-11.86-11.84-18.25-17.34
			c42.14-30.37,91.87-46.4,144.12-46.4c4.12,0,8.24,0.11,12.36,0.31v0c9.06,0.45,18.08,1.39,26.99,2.81
			c0.15,0.02,0.3,0.05,0.44,0.07c1.65,0.27,3.29,0.55,4.92,0.84c0.07,0.01,0.15,0.03,0.22,0.04c1.61,0.3,3.22,0.61,4.82,0.94
			c0.33,0.07,0.67,0.14,1,0.21c1.59,0.33,3.18,0.67,4.76,1.04c0,0,0,0,0,0c2.69,0.62,5.33,1.28,7.91,1.96
			c0.21,0.06,0.43,0.11,0.64,0.17c1.03,0.28,2.06,0.56,3.07,0.84c0.14,0.04,0.28,0.08,0.43,0.12c1.16,0.33,2.33,0.67,3.49,1.02
			c0.86,0.26,1.71,0.52,2.57,0.79c4.22,1.32,8.42,2.74,12.53,4.27c2.79,1.04,5.65,2.17,8.51,3.35c0.47,0.2,0.95,0.4,1.42,0.6
			c0.4,0.17,0.8,0.34,1.21,0.51c0.01,0.01,0.03,0.01,0.04,0.02c0.24,0.11,0.49,0.22,0.73,0.32c1.07,0.46,2.14,0.93,3.21,1.41
			c0.06,0.03,0.12,0.06,0.19,0.09c0.44,0.2,0.87,0.4,1.31,0.6c0.81,0.37,1.61,0.74,2.41,1.12c0.63,0.3,1.25,0.6,1.88,0.9
			c0.65,0.31,1.3,0.62,1.94,0.94c0.72,0.35,1.43,0.71,2.14,1.07c0.52,0.26,1.04,0.53,1.56,0.79c0.81,0.42,1.62,0.83,2.42,1.26
			c0.37,0.19,0.74,0.39,1.1,0.59c0.94,0.5,1.88,1,2.81,1.52c0.13,0.07,0.26,0.14,0.39,0.22c30.58,16.9,57.22,40.11,78.29,68.25h0.07
			c31.27,41.82,49.14,93.38,49.14,147.92c0,136.16-110.77,246.93-246.93,246.93c-55.87,0-110.33-19.08-153.92-53.85
			C1001.91,1290.04,1002.65,1289.46,1003.38,1288.88z"/>
		<path class="st0" d="M1161.28,835.57c0.3-5.19,0.76-10.39,0.64-15.61c0.06-2.61-0.16-5.21-0.28-7.82
			c-0.08-2.61-0.41-5.2-0.67-7.81c-1.16-10.39-3.44-20.67-6.71-30.65c-3.31-9.96-7.65-19.6-12.91-28.72
			c-5.27-9.12-11.51-17.69-18.55-25.55c-14.05-15.77-31.45-28.54-50.64-37.47c-19.22-8.89-40.3-13.73-61.48-14.27
			c-21.17-0.48-42.47,3.27-62.11,11.2c-19.62,7.95-37.62,19.85-52.43,34.9c-14.89,14.97-26.53,33.06-34.13,52.62
			c-3.76,9.8-6.56,19.95-8.24,30.27c-0.39,2.59-0.85,5.16-1.06,7.76c-0.26,2.6-0.59,5.19-0.66,7.8c-0.11,2.61-0.3,5.2-0.24,7.81
			c0.02,2.6-0.03,5.21,0.11,7.8c0.23-10.4,1.32-20.75,3.46-30.88c2.14-10.12,5.23-20.02,9.31-29.47
			c4.05-9.47,9.03-18.53,14.87-26.97c1.46-2.11,3.03-4.14,4.52-6.23c1.58-2.02,3.21-4,4.81-6.01c1.7-1.92,3.39-3.85,5.11-5.75
			c1.8-1.82,3.55-3.69,5.39-5.48c7.37-7.12,15.43-13.49,24.01-19.05c8.59-5.54,17.73-10.22,27.24-13.92
			c9.51-3.7,19.37-6.51,29.42-8.26c10.05-1.76,20.27-2.49,30.47-2.22c20.4,0.43,40.68,5.04,59.28,13.45
			c9.31,4.17,18.21,9.3,26.51,15.26c8.29,5.97,16.03,12.75,23.04,20.21c7.02,7.46,13.22,15.7,18.63,24.42
			c5.41,8.73,9.93,18.02,13.5,27.68c3.61,9.65,6.2,19.69,7.83,29.9C1161,814.78,1161.53,825.17,1161.28,835.57z"/>
		<path class="st0" d="M876.74,694.64c8.89-8.66,18.64-16.41,29.02-23.17c10.39-6.74,21.46-12.43,32.98-16.94
			c11.52-4.51,23.47-7.92,35.65-10.05c12.18-2.14,24.57-3.04,36.94-2.72c12.36,0.28,24.7,1.79,36.75,4.54
			c12.06,2.74,23.83,6.74,35.1,11.82c11.28,5.08,22.05,11.31,32.1,18.56c10.04,7.26,19.38,15.49,27.84,24.57
			c8.46,9.09,15.94,19.07,22.45,29.67c6.5,10.6,11.93,21.87,16.18,33.59c4.3,11.7,7.37,23.87,9.25,36.23l0.68,4.64
			c0.25,1.55,0.33,3.11,0.5,4.67l0.45,4.68c0.09,0.78,0.14,1.56,0.16,2.34l0.11,2.35c0.14,3.13,0.36,6.26,0.35,9.4
			c0.02,3.14-0.04,6.28-0.18,9.42c0.29-3.13,0.5-6.27,0.63-9.41c0.16-3.14,0.1-6.29,0.1-9.44l-0.01-2.36
			c0.01-0.79-0.01-1.58-0.07-2.36l-0.27-4.72c-0.11-1.57-0.13-3.15-0.32-4.72l-0.5-4.7c-1.41-12.54-4.17-24.95-8.13-36.98
			c-3.99-12.02-9.24-23.63-15.59-34.62c-6.36-10.99-13.88-21.32-22.36-30.8c-16.95-18.99-37.91-34.38-61.03-45.13
			c-23.16-10.71-48.54-16.54-74.05-17.18c-25.5-0.59-51.15,3.94-74.81,13.5c-23.64,9.57-45.32,23.92-63.18,42.05
			c-17.93,18.06-31.98,39.85-41.16,63.45c-4.55,11.81-7.93,24.07-9.96,36.52l-0.74,4.67c-0.25,1.56-0.36,3.13-0.55,4.7l-0.5,4.7
			c-0.17,1.57-0.2,3.14-0.31,4.71l-0.25,4.72c-0.1,1.57-0.03,3.15-0.06,4.72c-0.01,3.15-0.04,6.29,0.11,9.43
			c0.19-12.57,1.39-25.09,3.9-37.35c2.5-12.26,6.17-24.25,11.04-35.73c4.84-11.49,10.81-22.48,17.83-32.74
			C859.87,712.9,867.83,703.29,876.74,694.64z"/>
		<path class="st0" d="M1089.92,783.74c-2.87-6.06-6.46-11.78-10.59-17.1c-1.02-1.34-2.14-2.6-3.21-3.9
			c-1.13-1.25-2.27-2.49-3.43-3.71c-2.38-2.38-4.86-4.68-7.48-6.8c-5.23-4.26-10.92-7.98-16.95-11.04
			c-12.08-6.11-25.58-9.37-39.11-9.75c-13.53-0.28-27.17,2.27-39.55,7.77c-6.18,2.76-12.05,6.18-17.49,10.17
			c-5.44,3.99-10.45,8.57-14.83,13.68c-8.83,10.16-15.35,22.25-18.94,35.1c-1.75,6.44-2.82,13.04-3.11,19.66l-0.1,2.48
			c-0.03,0.83,0.01,1.65,0.01,2.48c0.01,1.65,0.03,3.3,0.15,4.95c0.23,3.29,0.64,6.56,1.22,9.8c-0.59-6.55-0.4-13.11,0.34-19.57
			c0.77-6.46,2.16-12.82,4.26-18.94c2.06-6.12,4.79-12,8.1-17.5c3.32-5.5,7.14-10.68,11.5-15.37c8.74-9.34,19.37-16.87,31.1-21.79
			c11.7-4.99,24.48-7.35,37.17-6.98c12.69,0.27,25.34,3.26,36.76,8.86c11.47,5.51,21.72,13.55,29.96,23.33
			c4.12,4.9,7.68,10.26,10.71,15.92c3.02,5.66,5.47,11.67,7.2,17.89c1.78,6.21,2.85,12.64,3.3,19.13c0.26,3.25,0.31,6.51,0.19,9.78
			c-0.09,3.27-0.37,6.54-0.82,9.79c1.5-6.39,2.31-12.99,2.28-19.62c0.04-6.63-0.7-13.27-2.11-19.79
			C1095.02,796.15,1092.78,789.8,1089.92,783.74z"/>
		<path class="st0" d="M1124.97,786.61c-2.48-8.12-5.83-15.99-9.95-23.46c-4.11-7.47-9.07-14.48-14.65-20.95
			c-11.13-12.99-25.15-23.5-40.65-30.86c-15.53-7.32-32.62-11.32-49.8-11.77c-17.17-0.38-34.44,2.72-50.32,9.26
			c-15.85,6.58-30.38,16.36-42.15,28.78c-5.9,6.19-11.2,12.94-15.67,20.2c-4.48,7.25-8.23,14.94-11.12,22.93
			c-5.76,15.98-8.06,33.11-6.74,49.86c-0.01-16.79,3.08-33.49,9.45-48.82c6.28-15.36,15.7-29.32,27.38-40.92
			c11.71-11.58,25.69-20.82,40.96-26.82c15.23-6.07,31.68-9,48.07-8.53c32.8,0.59,65.01,15.31,87.13,39.77
			c11.09,12.17,19.8,26.59,25.29,42.24c2.79,7.81,4.74,15.94,5.91,24.19c0.18,1.03,0.28,2.07,0.39,3.1l0.33,3.11
			c0.13,1.04,0.18,2.08,0.23,3.12l0.17,3.13c0.24,4.18,0.19,8.38-0.03,12.57c1.07-8.33,1.23-16.8,0.54-25.22
			C1129.05,803.1,1127.42,794.74,1124.97,786.61z"/>
	</g>
</g>
</svg>
